<?xml version="1.0" encoding="UTF-8" standalone="no"?>
<!DOCTYPE svg PUBLIC "-//W3C//DTD SVG 1.1//EN"
 "http://www.w3.org/Graphics/SVG/1.1/DTD/svg11.dtd">
<!-- Generated by graphviz version 2.40.1 (0)
 -->
<!-- Title: G Pages: 1 -->
<svg width="1374pt" height="978pt"
 viewBox="0.00 0.00 1374.00 978.00" xmlns="http://www.w3.org/2000/svg" xmlns:xlink="http://www.w3.org/1999/xlink">
<g id="graph0" class="graph" transform="scale(1 1) rotate(0) translate(4 974)">
<title>G</title>
<polygon fill="#ffffff" stroke="transparent" points="-4,4 -4,-974 1370,-974 1370,4 -4,4"/>
<g id="clust1" class="cluster">
<title>cluster_root</title>
<g id="a_clust1"><a xlink:title="eventq_index=0&#10;full_system=false&#10;sim_quantum=0&#10;time_sync_enable=false&#10;time_sync_period=100000000000&#10;time_sync_spin_threshold=100000000">
<path fill="#bab6ae" stroke="#000000" d="M20,-8C20,-8 1346,-8 1346,-8 1352,-8 1358,-14 1358,-20 1358,-20 1358,-950 1358,-950 1358,-956 1352,-962 1346,-962 1346,-962 20,-962 20,-962 14,-962 8,-956 8,-950 8,-950 8,-20 8,-20 8,-14 14,-8 20,-8"/>
<text text-anchor="middle" x="683" y="-946.8" font-family="Arial" font-size="14.00" fill="#000000">root </text>
<text text-anchor="middle" x="683" y="-931.8" font-family="Arial" font-size="14.00" fill="#000000">: Root</text>
</a>
</g>
</g>
<g id="clust2" class="cluster">
<title>cluster_board</title>
<g id="a_clust2"><a xlink:title="auto_unlink_shared_backstore=false&#10;cache_line_size=64&#10;eventq_index=0&#10;exit_on_work_items=true&#10;external_memory_ranges=&#10;init_param=0&#10;m5ops_base=4294901760&#10;mem_mode=timing&#10;mem_ranges=0:1073741824&#10;memories=board.memory.mem_ctrl0.dram board.memory.mem_ctrl1.dram&#10;mmap_using_noreserve=false&#10;multi_thread=false&#10;&#10;um_work_ids=16&#10;&#13;eadfile=&#10;&#13;edirect_paths=&#10;shadow_rom_ranges=&#10;shared_backstore=&#10;symbolfile=&#10;thermal_components=&#10;thermal_model=Null&#10;work_begin_ckpt_count=0&#10;work_begin_cpu_id_exit=&#45;1&#10;work_begin_exit_count=0&#10;work_cpus_ckpt_count=0&#10;work_end_ckpt_count=0&#10;work_end_exit_count=0&#10;work_item_id=&#45;1&#10;workload=board.workload">
<path fill="#e4e7eb" stroke="#000000" d="M28,-16C28,-16 1338,-16 1338,-16 1344,-16 1350,-22 1350,-28 1350,-28 1350,-904 1350,-904 1350,-910 1344,-916 1338,-916 1338,-916 28,-916 28,-916 22,-916 16,-910 16,-904 16,-904 16,-28 16,-28 16,-22 22,-16 28,-16"/>
<text text-anchor="middle" x="683" y="-900.8" font-family="Arial" font-size="14.00" fill="#000000">board </text>
<text text-anchor="middle" x="683" y="-885.8" font-family="Arial" font-size="14.00" fill="#000000">: SimpleBoard</text>
</a>
</g>
</g>
<g id="clust6" class="cluster">
<title>cluster_board_processor</title>
<g id="a_clust6"><a xlink:title="eventq_index=0&#10;thermal_domain=Null">
<path fill="#bab6ae" stroke="#000000" d="M828,-130C828,-130 1330,-130 1330,-130 1336,-130 1342,-136 1342,-142 1342,-142 1342,-424 1342,-424 1342,-430 1336,-436 1330,-436 1330,-436 828,-436 828,-436 822,-436 816,-430 816,-424 816,-424 816,-142 816,-142 816,-136 822,-130 828,-130"/>
<text text-anchor="middle" x="1079" y="-420.8" font-family="Arial" font-size="14.00" fill="#000000">processor </text>
<text text-anchor="middle" x="1079" y="-405.8" font-family="Arial" font-size="14.00" fill="#000000">: MyOutOfOrderCPU</text>
</a>
</g>
</g>
<g id="clust7" class="cluster">
<title>cluster_board_processor_cores</title>
<g id="a_clust7"><a xlink:title="eventq_index=0&#10;thermal_domain=Null">
<path fill="#9f9c95" stroke="#000000" d="M836,-138C836,-138 1322,-138 1322,-138 1328,-138 1334,-144 1334,-150 1334,-150 1334,-378 1334,-378 1334,-384 1328,-390 1322,-390 1322,-390 836,-390 836,-390 830,-390 824,-384 824,-378 824,-378 824,-150 824,-150 824,-144 830,-138 836,-138"/>
<text text-anchor="middle" x="1079" y="-374.8" font-family="Arial" font-size="14.00" fill="#000000">cores </text>
<text text-anchor="middle" x="1079" y="-359.8" font-family="Arial" font-size="14.00" fill="#000000">: OutOfOrderCPUStdCore</text>
</a>
</g>
</g>
<g id="clust8" class="cluster">
<title>cluster_board_processor_cores_core</title>
<g id="a_clust8"><a xlink:title="LFSTSize=1024&#10;LQEntries=64&#10;LSQCheckLoads=true&#10;LSQDepCheckShift=4&#10;SQEntries=64&#10;SSITAssoc=1&#10;SSITIndexingPolicy=board.processor.cores.core.SSITIndexingPolicy&#10;SSITReplPolicy=board.processor.cores.core.SSITReplPolicy&#10;SSITSize=1024&#10;activity=0&#10;backComSize=5&#10;branchPred=board.processor.cores.core.branchPred&#10;cacheLoadPorts=200&#10;cacheStorePorts=200&#10;checker=Null&#10;clk_domain=board.clk_domain&#10;commitToDecodeDelay=1&#10;commitToFetchDelay=1&#10;commitToIEWDelay=1&#10;commitToRenameDelay=1&#10;commitWidth=4&#10;cpu_id=&#45;1&#10;decodeToFetchDelay=1&#10;decodeToRenameDelay=1&#10;decodeWidth=4&#10;decoder=board.processor.cores.core.decoder&#10;dispatchWidth=4&#10;do_checkpoint_insts=true&#10;do_statistics_insts=true&#10;eventq_index=0&#10;fetchBufferSize=64&#10;fetchQueueSize=64&#10;fetchToDecodeDelay=1&#10;fetchTrapLatency=1&#10;fetchWidth=4&#10;forwardComSize=5&#10;fuPool=board.processor.cores.core.fuPool&#10;function_trace=false&#10;function_trace_start=0&#10;iewToCommitDelay=1&#10;iewToDecodeDelay=1&#10;iewToFetchDelay=1&#10;iewToRenameDelay=1&#10;interrupts=board.processor.cores.core.interrupts&#10;isa=board.processor.cores.core.isa&#10;issueToExecuteDelay=1&#10;issueWidth=4&#10;max_insts_all_threads=0&#10;max_insts_any_thread=0&#10;mmu=board.processor.cores.core.mmu&#10;&#10;eedsTSO=false&#10;&#10;umIQEntries=64&#10;&#10;umPhysCCRegs=800&#10;&#10;umPhysFloatRegs=160&#10;&#10;umPhysIntRegs=160&#10;&#10;umPhysMatRegs=2&#10;&#10;umPhysVecPredRegs=32&#10;&#10;umPhysVecRegs=160&#10;&#10;umROBEntries=128&#10;&#10;umRobs=1&#10;&#10;umThreads=1&#10;power_gating_on_idle=false&#10;power_model=&#10;power_state=board.processor.cores.core.power_state&#10;progress_interval=0&#10;pwr_gating_latency=300&#10;&#13;ecvRespBufferSize=64&#10;&#13;ecvRespMaxCachelines=1&#10;&#13;ecvRespThrottling=false&#10;&#13;enameToDecodeDelay=1&#10;&#13;enameToFetchDelay=1&#10;&#13;enameToIEWDelay=2&#10;&#13;enameToROBDelay=1&#10;&#13;enameWidth=4&#10;simpoint_start_insts=&#10;smtCommitPolicy=RoundRobin&#10;smtFetchPolicy=RoundRobin&#10;smtIQPolicy=Partitioned&#10;smtIQThreshold=100&#10;smtLSQPolicy=Partitioned&#10;smtLSQThreshold=100&#10;smtNumFetchingThreads=1&#10;smtROBPolicy=Partitioned&#10;smtROBThreshold=100&#10;socket_id=0&#10;squashWidth=4&#10;store_set_clear_period=250000&#10;switched_out=false&#10;syscallRetryLatency=10000&#10;system=board&#10;tracer=board.processor.cores.core.tracer&#10;trapLatency=13&#10;wbWidth=4&#10;workload=board.processor.cores.core.workload">
<path fill="#bbc6d9" stroke="#000000" d="M844,-146C844,-146 1314,-146 1314,-146 1320,-146 1326,-152 1326,-158 1326,-158 1326,-332 1326,-332 1326,-338 1320,-344 1314,-344 1314,-344 844,-344 844,-344 838,-344 832,-338 832,-332 832,-332 832,-158 832,-158 832,-152 838,-146 844,-146"/>
<text text-anchor="middle" x="1079" y="-328.8" font-family="Arial" font-size="14.00" fill="#000000">core </text>
<text text-anchor="middle" x="1079" y="-313.8" font-family="Arial" font-size="14.00" fill="#000000">: OutOfOrderCPUCore</text>
</a>
</g>
</g>
<g id="clust9" class="cluster">
<title>cluster_board_processor_cores_core_mmu</title>
<g id="a_clust9"><a xlink:title="dtb=board.processor.cores.core.mmu.dtb&#10;dtb_walker=board.processor.cores.core.mmu.dtb_walker&#10;eventq_index=0&#10;itb=board.processor.cores.core.mmu.itb&#10;itb_walker=board.processor.cores.core.mmu.itb_walker&#10;&#13;elease_se=board.processor.cores.core.isa.release_se&#10;stage2_dtb=board.processor.cores.core.mmu.stage2_dtb&#10;stage2_dtb_walker=board.processor.cores.core.mmu.stage2_dtb_walker&#10;stage2_itb=board.processor.cores.core.mmu.stage2_itb&#10;stage2_itb_walker=board.processor.cores.core.mmu.stage2_itb_walker&#10;sys=board">
<path fill="#bab6ae" stroke="#000000" d="M1058,-154C1058,-154 1306,-154 1306,-154 1312,-154 1318,-160 1318,-166 1318,-166 1318,-286 1318,-286 1318,-292 1312,-298 1306,-298 1306,-298 1058,-298 1058,-298 1052,-298 1046,-292 1046,-286 1046,-286 1046,-166 1046,-166 1046,-160 1052,-154 1058,-154"/>
<text text-anchor="middle" x="1182" y="-282.8" font-family="Arial" font-size="14.00" fill="#000000">mmu </text>
<text text-anchor="middle" x="1182" y="-267.8" font-family="Arial" font-size="14.00" fill="#000000">: ArmMMU</text>
</a>
</g>
</g>
<g id="clust25" class="cluster">
<title>cluster_board_processor_cores_core_mmu_itb_walker</title>
<g id="a_clust25"><a xlink:title="clk_domain=board.clk_domain&#10;eventq_index=0&#10;is_stage2=false&#10;&#10;um_squash_per_cycle=2&#10;power_model=&#10;power_state=board.processor.cores.core.mmu.itb_walker.power_state&#10;sys=board">
<path fill="#9f9c95" stroke="#000000" d="M1198,-162C1198,-162 1298,-162 1298,-162 1304,-162 1310,-168 1310,-174 1310,-174 1310,-240 1310,-240 1310,-246 1304,-252 1298,-252 1298,-252 1198,-252 1198,-252 1192,-252 1186,-246 1186,-240 1186,-240 1186,-174 1186,-174 1186,-168 1192,-162 1198,-162"/>
<text text-anchor="middle" x="1248" y="-236.8" font-family="Arial" font-size="14.00" fill="#000000">itb_walker </text>
<text text-anchor="middle" x="1248" y="-221.8" font-family="Arial" font-size="14.00" fill="#000000">: ArmTableWalker</text>
</a>
</g>
</g>
<g id="clust27" class="cluster">
<title>cluster_board_processor_cores_core_mmu_dtb_walker</title>
<g id="a_clust27"><a xlink:title="clk_domain=board.clk_domain&#10;eventq_index=0&#10;is_stage2=false&#10;&#10;um_squash_per_cycle=2&#10;power_model=&#10;power_state=board.processor.cores.core.mmu.dtb_walker.power_state&#10;sys=board">
<path fill="#9f9c95" stroke="#000000" d="M1066,-162C1066,-162 1166,-162 1166,-162 1172,-162 1178,-168 1178,-174 1178,-174 1178,-240 1178,-240 1178,-246 1172,-252 1166,-252 1166,-252 1066,-252 1066,-252 1060,-252 1054,-246 1054,-240 1054,-240 1054,-174 1054,-174 1054,-168 1060,-162 1066,-162"/>
<text text-anchor="middle" x="1116" y="-236.8" font-family="Arial" font-size="14.00" fill="#000000">dtb_walker </text>
<text text-anchor="middle" x="1116" y="-221.8" font-family="Arial" font-size="14.00" fill="#000000">: ArmTableWalker</text>
</a>
</g>
</g>
<g id="clust136" class="cluster">
<title>cluster_board_memory</title>
<g id="a_clust136"><a xlink:title="eventq_index=0&#10;thermal_domain=Null">
<path fill="#bab6ae" stroke="#000000" d="M246,-726C246,-726 416,-726 416,-726 422,-726 428,-732 428,-738 428,-738 428,-858 428,-858 428,-864 422,-870 416,-870 416,-870 246,-870 246,-870 240,-870 234,-864 234,-858 234,-858 234,-738 234,-738 234,-732 240,-726 246,-726"/>
<text text-anchor="middle" x="331" y="-854.8" font-family="Arial" font-size="14.00" fill="#000000">memory </text>
<text text-anchor="middle" x="331" y="-839.8" font-family="Arial" font-size="14.00" fill="#000000">: DDR4_2x</text>
</a>
</g>
</g>
<g id="clust137" class="cluster">
<title>cluster_board_memory_mem_ctrl0</title>
<g id="a_clust137"><a xlink:title="clk_domain=board.clk_domain&#10;command_window=10000&#10;disable_sanity_check=false&#10;dram=board.memory.mem_ctrl0.dram&#10;eventq_index=0&#10;mem_sched_policy=frfcfs&#10;min_reads_per_switch=16&#10;min_writes_per_switch=16&#10;power_model=&#10;power_state=board.memory.mem_ctrl0.power_state&#10;qos_policy=Null&#10;qos_priorities=1&#10;qos_priority_escalation=false&#10;qos_q_policy=fifo&#10;qos_requestors= &#160;&#160;&#160;&#160;&#160;&#160;&#160;&#160;&#160;&#160;&#160;&#160;&#160;&#160;&#10;qos_syncro_scheduler=false&#10;qos_turnaround_policy=Null&#10;static_backend_latency=10000&#10;static_frontend_latency=10000&#10;system=board&#10;write_high_thresh_perc=85&#10;write_low_thresh_perc=50">
<path fill="#9f9c95" stroke="#000000" d="M347,-734C347,-734 408,-734 408,-734 414,-734 420,-740 420,-746 420,-746 420,-812 420,-812 420,-818 414,-824 408,-824 408,-824 347,-824 347,-824 341,-824 335,-818 335,-812 335,-812 335,-746 335,-746 335,-740 341,-734 347,-734"/>
<text text-anchor="middle" x="377.5" y="-808.8" font-family="Arial" font-size="14.00" fill="#000000">mem_ctrl0 </text>
<text text-anchor="middle" x="377.5" y="-793.8" font-family="Arial" font-size="14.00" fill="#000000">: MemCtrl</text>
</a>
</g>
</g>
<g id="clust141" class="cluster">
<title>cluster_board_memory_mem_ctrl1</title>
<g id="a_clust141"><a xlink:title="clk_domain=board.clk_domain&#10;command_window=10000&#10;disable_sanity_check=false&#10;dram=board.memory.mem_ctrl1.dram&#10;eventq_index=0&#10;mem_sched_policy=frfcfs&#10;min_reads_per_switch=16&#10;min_writes_per_switch=16&#10;power_model=&#10;power_state=board.memory.mem_ctrl1.power_state&#10;qos_policy=Null&#10;qos_priorities=1&#10;qos_priority_escalation=false&#10;qos_q_policy=fifo&#10;qos_requestors= &#160;&#160;&#160;&#160;&#160;&#160;&#160;&#160;&#160;&#160;&#160;&#160;&#160;&#160;&#10;qos_syncro_scheduler=false&#10;qos_turnaround_policy=Null&#10;static_backend_latency=10000&#10;static_frontend_latency=10000&#10;system=board&#10;write_high_thresh_perc=85&#10;write_low_thresh_perc=50">
<path fill="#9f9c95" stroke="#000000" d="M254,-734C254,-734 315,-734 315,-734 321,-734 327,-740 327,-746 327,-746 327,-812 327,-812 327,-818 321,-824 315,-824 315,-824 254,-824 254,-824 248,-824 242,-818 242,-812 242,-812 242,-746 242,-746 242,-740 248,-734 254,-734"/>
<text text-anchor="middle" x="284.5" y="-808.8" font-family="Arial" font-size="14.00" fill="#000000">mem_ctrl1 </text>
<text text-anchor="middle" x="284.5" y="-793.8" font-family="Arial" font-size="14.00" fill="#000000">: MemCtrl</text>
</a>
</g>
</g>
<g id="clust145" class="cluster">
<title>cluster_board_cache_hierarchy</title>
<g id="a_clust145"><a xlink:title="eventq_index=0&#10;thermal_domain=Null">
<path fill="#bab6ae" stroke="#000000" d="M36,-24C36,-24 796,-24 796,-24 802,-24 808,-30 808,-36 808,-36 808,-706 808,-706 808,-712 802,-718 796,-718 796,-718 36,-718 36,-718 30,-718 24,-712 24,-706 24,-706 24,-36 24,-36 24,-30 30,-24 36,-24"/>
<text text-anchor="middle" x="416" y="-702.8" font-family="Arial" font-size="14.00" fill="#000000">cache_hierarchy </text>
<text text-anchor="middle" x="416" y="-687.8" font-family="Arial" font-size="14.00" fill="#000000">: MyClassicPrivateL1SharedL2CacheHierarchyBuild</text>
</a>
</g>
</g>
<g id="clust146" class="cluster">
<title>cluster_board_cache_hierarchy_membus</title>
<g id="a_clust146"><a xlink:title="clk_domain=board.clk_domain&#10;eventq_index=0&#10;forward_latency=4&#10;frontend_latency=3&#10;header_latency=1&#10;max_outstanding_snoops=512&#10;max_routing_table_size=512&#10;point_of_coherency=true&#10;point_of_unification=true&#10;power_model=&#10;power_state=board.cache_hierarchy.membus.power_state&#10;&#13;esponse_latency=2&#10;snoop_filter=board.cache_hierarchy.membus.snoop_filter&#10;snoop_response_latency=4&#10;system=board&#10;use_default_range=false&#10;width=64">
<path fill="#6f798c" stroke="#000000" d="M44,-444C44,-444 358,-444 358,-444 364,-444 370,-450 370,-456 370,-456 370,-660 370,-660 370,-666 364,-672 358,-672 358,-672 44,-672 44,-672 38,-672 32,-666 32,-660 32,-660 32,-456 32,-456 32,-450 38,-444 44,-444"/>
<text text-anchor="middle" x="201" y="-656.8" font-family="Arial" font-size="14.00" fill="#000000">membus </text>
<text text-anchor="middle" x="201" y="-641.8" font-family="Arial" font-size="14.00" fill="#000000">: SystemXBar</text>
</a>
</g>
</g>
<g id="clust149" class="cluster">
<title>cluster_board_cache_hierarchy_membus_badaddr_responder</title>
<g id="a_clust149"><a xlink:title="clk_domain=board.clk_domain&#10;eventq_index=0&#10;fake_mem=false&#10;pio_addr=0&#10;pio_latency=100000&#10;pio_size=8&#10;power_model=&#10;power_state=board.cache_hierarchy.membus.badaddr_responder.power_state&#10;&#13;et_bad_addr=true&#10;&#13;et_data16=65535&#10;&#13;et_data32=4294967295&#10;&#13;et_data64=18446744073709551615&#10;&#13;et_data8=255&#10;system=board&#10;update_data=false&#10;warn_access=">
<path fill="#c7a793" stroke="#000000" d="M52,-452C52,-452 166,-452 166,-452 172,-452 178,-458 178,-464 178,-464 178,-530 178,-530 178,-536 172,-542 166,-542 166,-542 52,-542 52,-542 46,-542 40,-536 40,-530 40,-530 40,-464 40,-464 40,-458 46,-452 52,-452"/>
<text text-anchor="middle" x="109" y="-526.8" font-family="Arial" font-size="14.00" fill="#000000">badaddr_responder </text>
<text text-anchor="middle" x="109" y="-511.8" font-family="Arial" font-size="14.00" fill="#000000">: BadAddr</text>
</a>
</g>
</g>
<g id="clust151" class="cluster">
<title>cluster_board_cache_hierarchy_l1icaches</title>
<g id="a_clust151"><a xlink:title="addr_ranges=0:18446744073709551615&#10;assoc=8&#10;clk_domain=board.clk_domain&#10;clusivity=mostly_incl&#10;compressor=Null&#10;data_latency=1&#10;demand_mshr_reserve=1&#10;eventq_index=0&#10;is_read_only=false&#10;max_miss_count=0&#10;move_contractions=true&#10;mshrs=16&#10;partitioning_manager=Null&#10;power_model=&#10;power_state=board.cache_hierarchy.l1icaches.power_state&#10;prefetcher=Null&#10;&#13;eplace_expansions=true&#10;&#13;eplacement_policy=board.cache_hierarchy.l1icaches.replacement_policy&#10;&#13;esponse_latency=1&#10;sequential_access=false&#10;size=16384&#10;system=board&#10;tag_latency=1&#10;tags=board.cache_hierarchy.l1icaches.tags&#10;tgts_per_mshr=20&#10;warmup_percentage=0&#10;write_allocator=Null&#10;write_buffers=8&#10;writeback_clean=false">
<path fill="#9f9c95" stroke="#000000" d="M238,-32C238,-32 400,-32 400,-32 406,-32 412,-38 412,-44 412,-44 412,-110 412,-110 412,-116 406,-122 400,-122 400,-122 238,-122 238,-122 232,-122 226,-116 226,-110 226,-110 226,-44 226,-44 226,-38 232,-32 238,-32"/>
<text text-anchor="middle" x="319" y="-106.8" font-family="Arial" font-size="14.00" fill="#000000">l1icaches </text>
<text text-anchor="middle" x="319" y="-91.8" font-family="Arial" font-size="14.00" fill="#000000">: MyL1ICache</text>
</a>
</g>
</g>
<g id="clust157" class="cluster">
<title>cluster_board_cache_hierarchy_l1dcaches</title>
<g id="a_clust157"><a xlink:title="addr_ranges=0:18446744073709551615&#10;assoc=8&#10;clk_domain=board.clk_domain&#10;clusivity=mostly_incl&#10;compressor=Null&#10;data_latency=1&#10;demand_mshr_reserve=1&#10;eventq_index=0&#10;is_read_only=false&#10;max_miss_count=0&#10;move_contractions=true&#10;mshrs=16&#10;partitioning_manager=Null&#10;power_model=&#10;power_state=board.cache_hierarchy.l1dcaches.power_state&#10;prefetcher=board.cache_hierarchy.l1dcaches.prefetcher&#10;&#13;eplace_expansions=true&#10;&#13;eplacement_policy=board.cache_hierarchy.l1dcaches.replacement_policy&#10;&#13;esponse_latency=1&#10;sequential_access=false&#10;size=16384&#10;system=board&#10;tag_latency=1&#10;tags=board.cache_hierarchy.l1dcaches.tags&#10;tgts_per_mshr=20&#10;warmup_percentage=0&#10;write_allocator=Null&#10;write_buffers=8&#10;writeback_clean=false">
<path fill="#9f9c95" stroke="#000000" d="M44,-32C44,-32 206,-32 206,-32 212,-32 218,-38 218,-44 218,-44 218,-110 218,-110 218,-116 212,-122 206,-122 206,-122 44,-122 44,-122 38,-122 32,-116 32,-110 32,-110 32,-44 32,-44 32,-38 38,-32 44,-32"/>
<text text-anchor="middle" x="125" y="-106.8" font-family="Arial" font-size="14.00" fill="#000000">l1dcaches </text>
<text text-anchor="middle" x="125" y="-91.8" font-family="Arial" font-size="14.00" fill="#000000">: MyL1DCache</text>
</a>
</g>
</g>
<g id="clust165" class="cluster">
<title>cluster_board_cache_hierarchy_l2bus</title>
<g id="a_clust165"><a xlink:title="clk_domain=board.clk_domain&#10;eventq_index=0&#10;forward_latency=0&#10;frontend_latency=1&#10;header_latency=1&#10;max_outstanding_snoops=512&#10;max_routing_table_size=512&#10;point_of_coherency=false&#10;point_of_unification=true&#10;power_model=&#10;power_state=board.cache_hierarchy.l2bus.power_state&#10;&#13;esponse_latency=1&#10;snoop_filter=board.cache_hierarchy.l2bus.snoop_filter&#10;snoop_response_latency=1&#10;system=board&#10;use_default_range=false&#10;width=32">
<path fill="#6f798c" stroke="#000000" d="M280,-162C280,-162 519,-162 519,-162 525,-162 531,-168 531,-174 531,-174 531,-240 531,-240 531,-246 525,-252 519,-252 519,-252 280,-252 280,-252 274,-252 268,-246 268,-240 268,-240 268,-174 268,-174 268,-168 274,-162 280,-162"/>
<text text-anchor="middle" x="399.5" y="-236.8" font-family="Arial" font-size="14.00" fill="#000000">l2bus </text>
<text text-anchor="middle" x="399.5" y="-221.8" font-family="Arial" font-size="14.00" fill="#000000">: L2XBar</text>
</a>
</g>
</g>
<g id="clust168" class="cluster">
<title>cluster_board_cache_hierarchy_l2cache</title>
<g id="a_clust168"><a xlink:title="addr_ranges=0:18446744073709551615&#10;assoc=16&#10;clk_domain=board.clk_domain&#10;clusivity=mostly_incl&#10;compressor=Null&#10;data_latency=10&#10;demand_mshr_reserve=1&#10;eventq_index=0&#10;is_read_only=false&#10;max_miss_count=0&#10;move_contractions=true&#10;mshrs=20&#10;partitioning_manager=Null&#10;power_model=&#10;power_state=board.cache_hierarchy.l2cache.power_state&#10;prefetcher=Null&#10;&#13;eplace_expansions=true&#10;&#13;eplacement_policy=board.cache_hierarchy.l2cache.replacement_policy&#10;&#13;esponse_latency=1&#10;sequential_access=false&#10;size=262144&#10;system=board&#10;tag_latency=10&#10;tags=board.cache_hierarchy.l2cache.tags&#10;tgts_per_mshr=12&#10;warmup_percentage=0&#10;write_allocator=Null&#10;write_buffers=8&#10;writeback_clean=false">
<path fill="#9f9c95" stroke="#000000" d="M390,-452C390,-452 552,-452 552,-452 558,-452 564,-458 564,-464 564,-464 564,-530 564,-530 564,-536 558,-542 552,-542 552,-542 390,-542 390,-542 384,-542 378,-536 378,-530 378,-530 378,-464 378,-464 378,-458 384,-452 390,-452"/>
<text text-anchor="middle" x="471" y="-526.8" font-family="Arial" font-size="14.00" fill="#000000">l2cache </text>
<text text-anchor="middle" x="471" y="-511.8" font-family="Arial" font-size="14.00" fill="#000000">: MyL2Cache</text>
</a>
</g>
</g>
<g id="clust174" class="cluster">
<title>cluster_board_cache_hierarchy_iptw_caches</title>
<g id="a_clust174"><a xlink:title="addr_ranges=0:18446744073709551615&#10;assoc=4&#10;clk_domain=board.clk_domain&#10;clusivity=mostly_incl&#10;compressor=Null&#10;data_latency=1&#10;demand_mshr_reserve=1&#10;eventq_index=0&#10;is_read_only=false&#10;max_miss_count=0&#10;move_contractions=true&#10;mshrs=20&#10;partitioning_manager=Null&#10;power_model=&#10;power_state=board.cache_hierarchy.iptw_caches.power_state&#10;prefetcher=Null&#10;&#13;eplace_expansions=true&#10;&#13;eplacement_policy=board.cache_hierarchy.iptw_caches.replacement_policy&#10;&#13;esponse_latency=1&#10;sequential_access=false&#10;size=8192&#10;system=board&#10;tag_latency=1&#10;tags=board.cache_hierarchy.iptw_caches.tags&#10;tgts_per_mshr=12&#10;warmup_percentage=0&#10;write_allocator=Null&#10;write_buffers=8&#10;writeback_clean=false">
<path fill="#9f9c95" stroke="#000000" d="M626,-32C626,-32 788,-32 788,-32 794,-32 800,-38 800,-44 800,-44 800,-110 800,-110 800,-116 794,-122 788,-122 788,-122 626,-122 626,-122 620,-122 614,-116 614,-110 614,-110 614,-44 614,-44 614,-38 620,-32 626,-32"/>
<text text-anchor="middle" x="707" y="-106.8" font-family="Arial" font-size="14.00" fill="#000000">iptw_caches </text>
<text text-anchor="middle" x="707" y="-91.8" font-family="Arial" font-size="14.00" fill="#000000">: MyMMUCache</text>
</a>
</g>
</g>
<g id="clust180" class="cluster">
<title>cluster_board_cache_hierarchy_dptw_caches</title>
<g id="a_clust180"><a xlink:title="addr_ranges=0:18446744073709551615&#10;assoc=4&#10;clk_domain=board.clk_domain&#10;clusivity=mostly_incl&#10;compressor=Null&#10;data_latency=1&#10;demand_mshr_reserve=1&#10;eventq_index=0&#10;is_read_only=false&#10;max_miss_count=0&#10;move_contractions=true&#10;mshrs=20&#10;partitioning_manager=Null&#10;power_model=&#10;power_state=board.cache_hierarchy.dptw_caches.power_state&#10;prefetcher=Null&#10;&#13;eplace_expansions=true&#10;&#13;eplacement_policy=board.cache_hierarchy.dptw_caches.replacement_policy&#10;&#13;esponse_latency=1&#10;sequential_access=false&#10;size=8192&#10;system=board&#10;tag_latency=1&#10;tags=board.cache_hierarchy.dptw_caches.tags&#10;tgts_per_mshr=12&#10;warmup_percentage=0&#10;write_allocator=Null&#10;write_buffers=8&#10;writeback_clean=false">
<path fill="#9f9c95" stroke="#000000" d="M432,-32C432,-32 594,-32 594,-32 600,-32 606,-38 606,-44 606,-44 606,-110 606,-110 606,-116 600,-122 594,-122 594,-122 432,-122 432,-122 426,-122 420,-116 420,-110 420,-110 420,-44 420,-44 420,-38 426,-32 432,-32"/>
<text text-anchor="middle" x="513" y="-106.8" font-family="Arial" font-size="14.00" fill="#000000">dptw_caches </text>
<text text-anchor="middle" x="513" y="-91.8" font-family="Arial" font-size="14.00" fill="#000000">: MyMMUCache</text>
</a>
</g>
</g>
<!-- board_system_port -->
<g id="node1" class="node">
<title>board_system_port</title>
<path fill="#b6b8bc" stroke="#000000" d="M204,-778C204,-778 136,-778 136,-778 130,-778 124,-772 124,-766 124,-766 124,-754 124,-754 124,-748 130,-742 136,-742 136,-742 204,-742 204,-742 210,-742 216,-748 216,-754 216,-754 216,-766 216,-766 216,-772 210,-778 204,-778"/>
<text text-anchor="middle" x="170" y="-756.3" font-family="Arial" font-size="14.00" fill="#000000">system_port</text>
</g>
<!-- board_cache_hierarchy_membus_cpu_side_ports -->
<g id="node8" class="node">
<title>board_cache_hierarchy_membus_cpu_side_ports</title>
<path fill="#586070" stroke="#000000" d="M212.5,-626C212.5,-626 127.5,-626 127.5,-626 121.5,-626 115.5,-620 115.5,-614 115.5,-614 115.5,-602 115.5,-602 115.5,-596 121.5,-590 127.5,-590 127.5,-590 212.5,-590 212.5,-590 218.5,-590 224.5,-596 224.5,-602 224.5,-602 224.5,-614 224.5,-614 224.5,-620 218.5,-626 212.5,-626"/>
<text text-anchor="middle" x="170" y="-604.3" font-family="Arial" font-size="14.00" fill="#000000">cpu_side_ports</text>
</g>
<!-- board_system_port&#45;&gt;board_cache_hierarchy_membus_cpu_side_ports -->
<g id="edge1" class="edge">
<title>board_system_port&#45;&gt;board_cache_hierarchy_membus_cpu_side_ports</title>
<path fill="none" stroke="#000000" d="M170,-741.9667C170,-715.7983 170,-667.0561 170,-636.1368"/>
<polygon fill="#000000" stroke="#000000" points="173.5001,-636.0098 170,-626.0098 166.5001,-636.0099 173.5001,-636.0098"/>
</g>
<!-- board_processor_cores_core_icache_port -->
<g id="node2" class="node">
<title>board_processor_cores_core_icache_port</title>
<path fill="#959ead" stroke="#000000" d="M1025.5,-206C1025.5,-206 962.5,-206 962.5,-206 956.5,-206 950.5,-200 950.5,-194 950.5,-194 950.5,-182 950.5,-182 950.5,-176 956.5,-170 962.5,-170 962.5,-170 1025.5,-170 1025.5,-170 1031.5,-170 1037.5,-176 1037.5,-182 1037.5,-182 1037.5,-194 1037.5,-194 1037.5,-200 1031.5,-206 1025.5,-206"/>
<text text-anchor="middle" x="994" y="-184.3" font-family="Arial" font-size="14.00" fill="#000000">icache_port</text>
</g>
<!-- board_cache_hierarchy_l1icaches_cpu_side -->
<g id="node12" class="node">
<title>board_cache_hierarchy_l1icaches_cpu_side</title>
<path fill="#7f7c77" stroke="#000000" d="M391.5,-76C391.5,-76 344.5,-76 344.5,-76 338.5,-76 332.5,-70 332.5,-64 332.5,-64 332.5,-52 332.5,-52 332.5,-46 338.5,-40 344.5,-40 344.5,-40 391.5,-40 391.5,-40 397.5,-40 403.5,-46 403.5,-52 403.5,-52 403.5,-64 403.5,-64 403.5,-70 397.5,-76 391.5,-76"/>
<text text-anchor="middle" x="368" y="-54.3" font-family="Arial" font-size="14.00" fill="#000000">cpu_side</text>
</g>
<!-- board_processor_cores_core_icache_port&#45;&gt;board_cache_hierarchy_l1icaches_cpu_side -->
<g id="edge2" class="edge">
<title>board_processor_cores_core_icache_port&#45;&gt;board_cache_hierarchy_l1icaches_cpu_side</title>
<path fill="none" stroke="#000000" d="M983.302,-169.8845C974.0468,-156.1307 959.2855,-138.2278 941,-130 914.3989,-118.0304 441.9903,-135.2436 416,-122 400.6164,-114.1612 388.8547,-98.8439 380.8248,-85.1597"/>
<polygon fill="#000000" stroke="#000000" points="383.7229,-83.1635 375.8632,-76.0588 377.5769,-86.5142 383.7229,-83.1635"/>
</g>
<!-- board_processor_cores_core_dcache_port -->
<g id="node3" class="node">
<title>board_processor_cores_core_dcache_port</title>
<path fill="#959ead" stroke="#000000" d="M920,-206C920,-206 852,-206 852,-206 846,-206 840,-200 840,-194 840,-194 840,-182 840,-182 840,-176 846,-170 852,-170 852,-170 920,-170 920,-170 926,-170 932,-176 932,-182 932,-182 932,-194 932,-194 932,-200 926,-206 920,-206"/>
<text text-anchor="middle" x="886" y="-184.3" font-family="Arial" font-size="14.00" fill="#000000">dcache_port</text>
</g>
<!-- board_cache_hierarchy_l1dcaches_cpu_side -->
<g id="node14" class="node">
<title>board_cache_hierarchy_l1dcaches_cpu_side</title>
<path fill="#7f7c77" stroke="#000000" d="M197.5,-76C197.5,-76 150.5,-76 150.5,-76 144.5,-76 138.5,-70 138.5,-64 138.5,-64 138.5,-52 138.5,-52 138.5,-46 144.5,-40 150.5,-40 150.5,-40 197.5,-40 197.5,-40 203.5,-40 209.5,-46 209.5,-52 209.5,-52 209.5,-64 209.5,-64 209.5,-70 203.5,-76 197.5,-76"/>
<text text-anchor="middle" x="174" y="-54.3" font-family="Arial" font-size="14.00" fill="#000000">cpu_side</text>
</g>
<!-- board_processor_cores_core_dcache_port&#45;&gt;board_cache_hierarchy_l1dcaches_cpu_side -->
<g id="edge3" class="edge">
<title>board_processor_cores_core_dcache_port&#45;&gt;board_cache_hierarchy_l1dcaches_cpu_side</title>
<path fill="none" stroke="#000000" d="M839.99,-178.3079C773.1726,-164.7102 645.2161,-140.4641 535,-130 517.6833,-128.3559 237.4575,-129.9772 222,-122 206.6571,-114.0819 194.8965,-98.7624 186.8571,-85.0968"/>
<polygon fill="#000000" stroke="#000000" points="189.7571,-83.1051 181.8875,-76.0115 183.6158,-86.4644 189.7571,-83.1051"/>
</g>
<!-- board_processor_cores_core_mmu_itb_walker_port -->
<g id="node4" class="node">
<title>board_processor_cores_core_mmu_itb_walker_port</title>
<path fill="#7f7c77" stroke="#000000" d="M1236,-206C1236,-206 1206,-206 1206,-206 1200,-206 1194,-200 1194,-194 1194,-194 1194,-182 1194,-182 1194,-176 1200,-170 1206,-170 1206,-170 1236,-170 1236,-170 1242,-170 1248,-176 1248,-182 1248,-182 1248,-194 1248,-194 1248,-200 1242,-206 1236,-206"/>
<text text-anchor="middle" x="1221" y="-184.3" font-family="Arial" font-size="14.00" fill="#000000">port</text>
</g>
<!-- board_cache_hierarchy_iptw_caches_cpu_side -->
<g id="node20" class="node">
<title>board_cache_hierarchy_iptw_caches_cpu_side</title>
<path fill="#7f7c77" stroke="#000000" d="M779.5,-76C779.5,-76 732.5,-76 732.5,-76 726.5,-76 720.5,-70 720.5,-64 720.5,-64 720.5,-52 720.5,-52 720.5,-46 726.5,-40 732.5,-40 732.5,-40 779.5,-40 779.5,-40 785.5,-40 791.5,-46 791.5,-52 791.5,-52 791.5,-64 791.5,-64 791.5,-70 785.5,-76 779.5,-76"/>
<text text-anchor="middle" x="756" y="-54.3" font-family="Arial" font-size="14.00" fill="#000000">cpu_side</text>
</g>
<!-- board_processor_cores_core_mmu_itb_walker_port&#45;&gt;board_cache_hierarchy_iptw_caches_cpu_side -->
<g id="edge4" class="edge">
<title>board_processor_cores_core_mmu_itb_walker_port&#45;&gt;board_cache_hierarchy_iptw_caches_cpu_side</title>
<path fill="none" stroke="#000000" d="M1213.5674,-169.8499C1207.1858,-156.6423 1196.6811,-139.4751 1182,-130 1119.5217,-89.6771 898.279,-68.6247 801.6811,-61.1809"/>
<polygon fill="#000000" stroke="#000000" points="801.8674,-57.6851 791.6319,-60.4211 801.3396,-64.6651 801.8674,-57.6851"/>
</g>
<!-- board_processor_cores_core_mmu_dtb_walker_port -->
<g id="node5" class="node">
<title>board_processor_cores_core_mmu_dtb_walker_port</title>
<path fill="#7f7c77" stroke="#000000" d="M1104,-206C1104,-206 1074,-206 1074,-206 1068,-206 1062,-200 1062,-194 1062,-194 1062,-182 1062,-182 1062,-176 1068,-170 1074,-170 1074,-170 1104,-170 1104,-170 1110,-170 1116,-176 1116,-182 1116,-182 1116,-194 1116,-194 1116,-200 1110,-206 1104,-206"/>
<text text-anchor="middle" x="1089" y="-184.3" font-family="Arial" font-size="14.00" fill="#000000">port</text>
</g>
<!-- board_cache_hierarchy_dptw_caches_cpu_side -->
<g id="node22" class="node">
<title>board_cache_hierarchy_dptw_caches_cpu_side</title>
<path fill="#7f7c77" stroke="#000000" d="M585.5,-76C585.5,-76 538.5,-76 538.5,-76 532.5,-76 526.5,-70 526.5,-64 526.5,-64 526.5,-52 526.5,-52 526.5,-46 532.5,-40 538.5,-40 538.5,-40 585.5,-40 585.5,-40 591.5,-40 597.5,-46 597.5,-52 597.5,-52 597.5,-64 597.5,-64 597.5,-70 591.5,-76 585.5,-76"/>
<text text-anchor="middle" x="562" y="-54.3" font-family="Arial" font-size="14.00" fill="#000000">cpu_side</text>
</g>
<!-- board_processor_cores_core_mmu_dtb_walker_port&#45;&gt;board_cache_hierarchy_dptw_caches_cpu_side -->
<g id="edge5" class="edge">
<title>board_processor_cores_core_mmu_dtb_walker_port&#45;&gt;board_cache_hierarchy_dptw_caches_cpu_side</title>
<path fill="none" stroke="#000000" d="M1084.6248,-169.8943C1080.3039,-156.3391 1072.2208,-138.6973 1058,-130 1036.7639,-117.0122 632.1646,-133.3307 610,-122 594.6267,-114.141 582.8653,-98.8232 574.833,-85.1437"/>
<polygon fill="#000000" stroke="#000000" points="577.7316,-83.1487 569.8693,-76.0468 571.5868,-86.5015 577.7316,-83.1487"/>
</g>
<!-- board_memory_mem_ctrl0_port -->
<g id="node6" class="node">
<title>board_memory_mem_ctrl0_port</title>
<path fill="#7f7c77" stroke="#000000" d="M385,-778C385,-778 355,-778 355,-778 349,-778 343,-772 343,-766 343,-766 343,-754 343,-754 343,-748 349,-742 355,-742 355,-742 385,-742 385,-742 391,-742 397,-748 397,-754 397,-754 397,-766 397,-766 397,-772 391,-778 385,-778"/>
<text text-anchor="middle" x="370" y="-756.3" font-family="Arial" font-size="14.00" fill="#000000">port</text>
</g>
<!-- board_cache_hierarchy_membus_mem_side_ports -->
<g id="node9" class="node">
<title>board_cache_hierarchy_membus_mem_side_ports</title>
<path fill="#586070" stroke="#000000" d="M349.5,-626C349.5,-626 254.5,-626 254.5,-626 248.5,-626 242.5,-620 242.5,-614 242.5,-614 242.5,-602 242.5,-602 242.5,-596 248.5,-590 254.5,-590 254.5,-590 349.5,-590 349.5,-590 355.5,-590 361.5,-596 361.5,-602 361.5,-602 361.5,-614 361.5,-614 361.5,-620 355.5,-626 349.5,-626"/>
<text text-anchor="middle" x="302" y="-604.3" font-family="Arial" font-size="14.00" fill="#000000">mem_side_ports</text>
</g>
<!-- board_memory_mem_ctrl0_port&#45;&gt;board_cache_hierarchy_membus_mem_side_ports -->
<g id="edge6" class="edge">
<title>board_memory_mem_ctrl0_port&#45;&gt;board_cache_hierarchy_membus_mem_side_ports</title>
<path fill="none" stroke="#000000" d="M357.7608,-732.6417C343.9446,-701.7586 321.8601,-652.3931 310.057,-626.0098"/>
<polygon fill="#000000" stroke="#000000" points="354.6539,-734.2678 361.9325,-741.9667 361.0436,-731.4092 354.6539,-734.2678"/>
</g>
<!-- board_memory_mem_ctrl1_port -->
<g id="node7" class="node">
<title>board_memory_mem_ctrl1_port</title>
<path fill="#7f7c77" stroke="#000000" d="M307,-778C307,-778 277,-778 277,-778 271,-778 265,-772 265,-766 265,-766 265,-754 265,-754 265,-748 271,-742 277,-742 277,-742 307,-742 307,-742 313,-742 319,-748 319,-754 319,-754 319,-766 319,-766 319,-772 313,-778 307,-778"/>
<text text-anchor="middle" x="292" y="-756.3" font-family="Arial" font-size="14.00" fill="#000000">port</text>
</g>
<!-- board_memory_mem_ctrl1_port&#45;&gt;board_cache_hierarchy_membus_mem_side_ports -->
<g id="edge7" class="edge">
<title>board_memory_mem_ctrl1_port&#45;&gt;board_cache_hierarchy_membus_mem_side_ports</title>
<path fill="none" stroke="#000000" d="M293.8529,-731.8354C295.8878,-700.9055 299.0944,-652.1647 300.8151,-626.0098"/>
<polygon fill="#000000" stroke="#000000" points="290.3505,-731.7585 293.1864,-741.9667 297.3354,-732.2181 290.3505,-731.7585"/>
</g>
<!-- board_cache_hierarchy_l2cache_mem_side -->
<g id="node19" class="node">
<title>board_cache_hierarchy_l2cache_mem_side</title>
<path fill="#7f7c77" stroke="#000000" d="M454,-496C454,-496 398,-496 398,-496 392,-496 386,-490 386,-484 386,-484 386,-472 386,-472 386,-466 392,-460 398,-460 398,-460 454,-460 454,-460 460,-460 466,-466 466,-472 466,-472 466,-484 466,-484 466,-490 460,-496 454,-496"/>
<text text-anchor="middle" x="426" y="-474.3" font-family="Arial" font-size="14.00" fill="#000000">mem_side</text>
</g>
<!-- board_cache_hierarchy_membus_cpu_side_ports&#45;&gt;board_cache_hierarchy_l2cache_mem_side -->
<g id="edge8" class="edge">
<title>board_cache_hierarchy_membus_cpu_side_ports&#45;&gt;board_cache_hierarchy_l2cache_mem_side</title>
<path fill="none" stroke="#000000" d="M214.5483,-585.3778C264.4432,-560.0406 344.3266,-519.4748 390.2949,-496.1315"/>
<polygon fill="#000000" stroke="#000000" points="212.9272,-582.2755 205.5957,-589.9241 216.0967,-588.5169 212.9272,-582.2755"/>
</g>
<!-- board_cache_hierarchy_membus_default -->
<g id="node10" class="node">
<title>board_cache_hierarchy_membus_default</title>
<path fill="#586070" stroke="#000000" d="M85.5,-626C85.5,-626 52.5,-626 52.5,-626 46.5,-626 40.5,-620 40.5,-614 40.5,-614 40.5,-602 40.5,-602 40.5,-596 46.5,-590 52.5,-590 52.5,-590 85.5,-590 85.5,-590 91.5,-590 97.5,-596 97.5,-602 97.5,-602 97.5,-614 97.5,-614 97.5,-620 91.5,-626 85.5,-626"/>
<text text-anchor="middle" x="69" y="-604.3" font-family="Arial" font-size="14.00" fill="#000000">default</text>
</g>
<!-- board_cache_hierarchy_membus_badaddr_responder_pio -->
<g id="node11" class="node">
<title>board_cache_hierarchy_membus_badaddr_responder_pio</title>
<path fill="#9f8575" stroke="#000000" d="M90,-496C90,-496 60,-496 60,-496 54,-496 48,-490 48,-484 48,-484 48,-472 48,-472 48,-466 54,-460 60,-460 60,-460 90,-460 90,-460 96,-460 102,-466 102,-472 102,-472 102,-484 102,-484 102,-490 96,-496 90,-496"/>
<text text-anchor="middle" x="75" y="-474.3" font-family="Arial" font-size="14.00" fill="#000000">pio</text>
</g>
<!-- board_cache_hierarchy_membus_default&#45;&gt;board_cache_hierarchy_membus_badaddr_responder_pio -->
<g id="edge9" class="edge">
<title>board_cache_hierarchy_membus_default&#45;&gt;board_cache_hierarchy_membus_badaddr_responder_pio</title>
<path fill="none" stroke="#000000" d="M69.8343,-589.9241C70.8317,-568.3139 72.5129,-531.8868 73.6855,-506.4801"/>
<polygon fill="#000000" stroke="#000000" points="77.1886,-506.4923 74.1535,-496.3415 70.196,-506.1695 77.1886,-506.4923"/>
</g>
<!-- board_cache_hierarchy_l1icaches_mem_side -->
<g id="node13" class="node">
<title>board_cache_hierarchy_l1icaches_mem_side</title>
<path fill="#7f7c77" stroke="#000000" d="M302,-76C302,-76 246,-76 246,-76 240,-76 234,-70 234,-64 234,-64 234,-52 234,-52 234,-46 240,-40 246,-40 246,-40 302,-40 302,-40 308,-40 314,-46 314,-52 314,-52 314,-64 314,-64 314,-70 308,-76 302,-76"/>
<text text-anchor="middle" x="274" y="-54.3" font-family="Arial" font-size="14.00" fill="#000000">mem_side</text>
</g>
<!-- board_cache_hierarchy_l1dcaches_mem_side -->
<g id="node15" class="node">
<title>board_cache_hierarchy_l1dcaches_mem_side</title>
<path fill="#7f7c77" stroke="#000000" d="M108,-76C108,-76 52,-76 52,-76 46,-76 40,-70 40,-64 40,-64 40,-52 40,-52 40,-46 46,-40 52,-40 52,-40 108,-40 108,-40 114,-40 120,-46 120,-52 120,-52 120,-64 120,-64 120,-70 114,-76 108,-76"/>
<text text-anchor="middle" x="80" y="-54.3" font-family="Arial" font-size="14.00" fill="#000000">mem_side</text>
</g>
<!-- board_cache_hierarchy_l2bus_cpu_side_ports -->
<g id="node16" class="node">
<title>board_cache_hierarchy_l2bus_cpu_side_ports</title>
<path fill="#586070" stroke="#000000" d="M510.5,-206C510.5,-206 425.5,-206 425.5,-206 419.5,-206 413.5,-200 413.5,-194 413.5,-194 413.5,-182 413.5,-182 413.5,-176 419.5,-170 425.5,-170 425.5,-170 510.5,-170 510.5,-170 516.5,-170 522.5,-176 522.5,-182 522.5,-182 522.5,-194 522.5,-194 522.5,-200 516.5,-206 510.5,-206"/>
<text text-anchor="middle" x="468" y="-184.3" font-family="Arial" font-size="14.00" fill="#000000">cpu_side_ports</text>
</g>
<!-- board_cache_hierarchy_l2bus_cpu_side_ports&#45;&gt;board_cache_hierarchy_l1icaches_mem_side -->
<g id="edge10" class="edge">
<title>board_cache_hierarchy_l2bus_cpu_side_ports&#45;&gt;board_cache_hierarchy_l1icaches_mem_side</title>
<path fill="none" stroke="#000000" d="M447.2694,-162.3914C436.0827,-150.4438 421.2486,-137.281 405,-130 371.9877,-115.2072 355.6942,-139.4391 324,-122 305.3464,-111.7362 291.3024,-91.3139 282.92,-76.2878"/>
<polygon fill="#000000" stroke="#000000" points="444.7954,-164.8753 454.0722,-169.9932 450.0117,-160.2073 444.7954,-164.8753"/>
</g>
<!-- board_cache_hierarchy_l2bus_cpu_side_ports&#45;&gt;board_cache_hierarchy_l1dcaches_mem_side -->
<g id="edge11" class="edge">
<title>board_cache_hierarchy_l2bus_cpu_side_ports&#45;&gt;board_cache_hierarchy_l1dcaches_mem_side</title>
<path fill="none" stroke="#000000" d="M447.7038,-162.1569C436.5443,-150.0196 421.6043,-136.7592 405,-130 376.6875,-118.4747 157.2769,-135.7987 130,-122 110.75,-112.2619 96.6502,-91.3035 88.4203,-76.015"/>
<polygon fill="#000000" stroke="#000000" points="445.2519,-164.6697 454.4708,-169.891 450.52,-160.0603 445.2519,-164.6697"/>
</g>
<!-- board_cache_hierarchy_iptw_caches_mem_side -->
<g id="node21" class="node">
<title>board_cache_hierarchy_iptw_caches_mem_side</title>
<path fill="#7f7c77" stroke="#000000" d="M690,-76C690,-76 634,-76 634,-76 628,-76 622,-70 622,-64 622,-64 622,-52 622,-52 622,-46 628,-40 634,-40 634,-40 690,-40 690,-40 696,-40 702,-46 702,-52 702,-52 702,-64 702,-64 702,-70 696,-76 690,-76"/>
<text text-anchor="middle" x="662" y="-54.3" font-family="Arial" font-size="14.00" fill="#000000">mem_side</text>
</g>
<!-- board_cache_hierarchy_l2bus_cpu_side_ports&#45;&gt;board_cache_hierarchy_iptw_caches_mem_side -->
<g id="edge12" class="edge">
<title>board_cache_hierarchy_l2bus_cpu_side_ports&#45;&gt;board_cache_hierarchy_iptw_caches_mem_side</title>
<path fill="none" stroke="#000000" d="M530.548,-166.1459C556.6385,-155.2641 586.3149,-140.4498 610,-122 626.4894,-109.1553 641.0839,-90.1452 650.5816,-76.1799"/>
<polygon fill="#000000" stroke="#000000" points="529.0638,-162.971 521.1156,-169.9766 531.6977,-169.4566 529.0638,-162.971"/>
</g>
<!-- board_cache_hierarchy_dptw_caches_mem_side -->
<g id="node23" class="node">
<title>board_cache_hierarchy_dptw_caches_mem_side</title>
<path fill="#7f7c77" stroke="#000000" d="M496,-76C496,-76 440,-76 440,-76 434,-76 428,-70 428,-64 428,-64 428,-52 428,-52 428,-46 434,-40 440,-40 440,-40 496,-40 496,-40 502,-40 508,-46 508,-52 508,-52 508,-64 508,-64 508,-70 502,-76 496,-76"/>
<text text-anchor="middle" x="468" y="-54.3" font-family="Arial" font-size="14.00" fill="#000000">mem_side</text>
</g>
<!-- board_cache_hierarchy_l2bus_cpu_side_ports&#45;&gt;board_cache_hierarchy_dptw_caches_mem_side -->
<g id="edge13" class="edge">
<title>board_cache_hierarchy_l2bus_cpu_side_ports&#45;&gt;board_cache_hierarchy_dptw_caches_mem_side</title>
<path fill="none" stroke="#000000" d="M468,-159.8307C468,-134.5144 468,-98.0723 468,-76.3415"/>
<polygon fill="#000000" stroke="#000000" points="464.5001,-159.924 468,-169.9241 471.5001,-159.9241 464.5001,-159.924"/>
</g>
<!-- board_cache_hierarchy_l2bus_mem_side_ports -->
<g id="node17" class="node">
<title>board_cache_hierarchy_l2bus_mem_side_ports</title>
<path fill="#586070" stroke="#000000" d="M383.5,-206C383.5,-206 288.5,-206 288.5,-206 282.5,-206 276.5,-200 276.5,-194 276.5,-194 276.5,-182 276.5,-182 276.5,-176 282.5,-170 288.5,-170 288.5,-170 383.5,-170 383.5,-170 389.5,-170 395.5,-176 395.5,-182 395.5,-182 395.5,-194 395.5,-194 395.5,-200 389.5,-206 383.5,-206"/>
<text text-anchor="middle" x="336" y="-184.3" font-family="Arial" font-size="14.00" fill="#000000">mem_side_ports</text>
</g>
<!-- board_cache_hierarchy_l2cache_cpu_side -->
<g id="node18" class="node">
<title>board_cache_hierarchy_l2cache_cpu_side</title>
<path fill="#7f7c77" stroke="#000000" d="M543.5,-496C543.5,-496 496.5,-496 496.5,-496 490.5,-496 484.5,-490 484.5,-484 484.5,-484 484.5,-472 484.5,-472 484.5,-466 490.5,-460 496.5,-460 496.5,-460 543.5,-460 543.5,-460 549.5,-460 555.5,-466 555.5,-472 555.5,-472 555.5,-484 555.5,-484 555.5,-490 549.5,-496 543.5,-496"/>
<text text-anchor="middle" x="520" y="-474.3" font-family="Arial" font-size="14.00" fill="#000000">cpu_side</text>
</g>
<!-- board_cache_hierarchy_l2cache_cpu_side&#45;&gt;board_cache_hierarchy_l2bus_mem_side_ports -->
<g id="edge14" class="edge">
<title>board_cache_hierarchy_l2cache_cpu_side&#45;&gt;board_cache_hierarchy_l2bus_mem_side_ports</title>
<path fill="none" stroke="#000000" d="M492.5788,-453.7402C487.0656,-449.9192 481.0858,-446.4337 475,-444 460.4625,-438.1865 416.908,-446.1654 405,-436 335.1497,-376.3719 332.9795,-252.668 334.8414,-206.1833"/>
<polygon fill="#000000" stroke="#000000" points="490.7081,-456.7123 500.8065,-459.9176 494.911,-451.1145 490.7081,-456.7123"/>
</g>
</g>
</svg>
